<svg xmlns="http://www.w3.org/2000/svg" xmlns:xlink="http://www.w3.org/1999/xlink" viewBox="0 0 92.02 36.67"><defs><style>.cls-1{fill:#0e261d;stroke:#f7b718;stroke-miterlimit:10;}.cls-2{fill:url(#linear-gradient);}.cls-3{fill:url(#linear-gradient-2);}.cls-4{fill:url(#linear-gradient-3);}.cls-5{fill:url(#linear-gradient-4);}</style><linearGradient id="linear-gradient" x1="14.73" y1="15.91" x2="0.71" y2="24" gradientUnits="userSpaceOnUse"><stop offset="0" stop-color="#f2f2f2"/><stop offset="0.04" stop-color="#f4f1d9"/><stop offset="0.13" stop-color="#f7ee99"/><stop offset="0.24" stop-color="#fdea3c"/><stop offset="0.25" stop-color="#fbe83a"/><stop offset="0.36" stop-color="#ecd82c"/><stop offset="0.48" stop-color="#e3ce23"/><stop offset="0.64" stop-color="#e0cb20"/><stop offset="0.96" stop-color="#c5b22e"/></linearGradient><linearGradient id="linear-gradient-2" x1="43.78" y1="23.86" x2="29.9" y2="15.84" gradientUnits="userSpaceOnUse"><stop offset="0" stop-color="#c5b22e"/><stop offset="0.32" stop-color="#e0cb20"/><stop offset="0.47" stop-color="#e3ce1f"/><stop offset="0.59" stop-color="#ecd71b"/><stop offset="0.69" stop-color="#fce615"/><stop offset="0.7" stop-color="#fde715"/><stop offset="0.73" stop-color="#fce827"/><stop offset="0.8" stop-color="#faea57"/><stop offset="0.9" stop-color="#f6eea3"/><stop offset="1" stop-color="#f2f2f2"/></linearGradient><linearGradient id="linear-gradient-3" x1="4.54" y1="15.08" x2="40.03" y2="15.08" gradientUnits="userSpaceOnUse"><stop offset="0" stop-color="#fdea3c"/><stop offset="0.11" stop-color="#efdb2f"/><stop offset="0.26" stop-color="#e4cf24"/><stop offset="0.41" stop-color="#e0cb20"/><stop offset="0.45" stop-color="#e9da60"/><stop offset="0.5" stop-color="#f1e798"/><stop offset="0.54" stop-color="#f7f1c5"/><stop offset="0.58" stop-color="#fbf9e5"/><stop offset="0.61" stop-color="#fefdf8"/><stop offset="0.63" stop-color="#fff"/><stop offset="0.79" stop-color="#fae739"/></linearGradient><linearGradient id="linear-gradient-4" x1="4.54" y1="15.14" x2="40.03" y2="15.14" gradientUnits="userSpaceOnUse"><stop offset="0.37" stop-color="#fdea3c"/><stop offset="0.42" stop-color="#fdea3c"/><stop offset="0.62" stop-color="#e0cb20"/><stop offset="0.76" stop-color="#e3ce23"/><stop offset="0.89" stop-color="#edd92d"/><stop offset="1" stop-color="#fdea3c"/></linearGradient></defs><g id="Layer_2" data-name="Layer 2"><g id="Layer_3" data-name="Layer 3"><rect class="cls-1" x="22.22" y="0.5" width="69.3" height="35.66"/></g><g id="Layer_2-2" data-name="Layer 2"><path class="cls-2" d="M6.29,1.29A22.23,22.23,0,0,0,.18,14s0,.08,0,.12a22.53,22.53,0,0,0,0,5,22.17,22.17,0,0,0,2.27,7.73l0,.05a22.39,22.39,0,0,0,10.13,9.75A22.3,22.3,0,0,1,7.12,23.8h0c0-.59-.07-1.18-.07-1.78h0a21.73,21.73,0,0,1,.74-5.69c-6.3-8.06-1.5-15-1.5-15"/><path class="cls-3" d="M38.35,1.39c.54.86,4.27,7.43-1.59,14.94h0a22.54,22.54,0,0,1,.56,3,20.58,20.58,0,0,1,.16,2.7h0c0,.6,0,1.19-.07,1.78h0a22.32,22.32,0,0,1-5.31,12.74A22.38,22.38,0,0,0,44.57,16.65a23.64,23.64,0,0,0-.16-2.5s0-.08,0-.12A22.26,22.26,0,0,0,38.31,1.29"/><path class="cls-4" d="M6.29,1.29s-4.8,7,1.5,15a13.5,13.5,0,0,1,2.37.09,13.82,13.82,0,0,1,11.51,9.47,14,14,0,0,1,.61,2.9.31.31,0,0,0,0,.08l0-8.73v0a13.94,13.94,0,0,0-9.68-9l-.06,0h0a8.22,8.22,0,0,1-2.14-.87A8.57,8.57,0,0,1,6.2,1.83"/><path class="cls-5" d="M38.41,1.83a8.55,8.55,0,0,1-4.19,8.41,8.36,8.36,0,0,1-2.14.87h0l-.06,0a13.84,13.84,0,0,0-9.67,9l0,8.73v0l0-.1A13.88,13.88,0,0,1,36.78,16.33c5.86-7.51,2.11-14.08,1.57-14.94"/></g></g></svg>