<svg xmlns="http://www.w3.org/2000/svg" xmlns:xlink="http://www.w3.org/1999/xlink" viewBox="0 0 422.09 335.07"><defs><style>.cls-1{fill:url(#linear-gradient);}.cls-2{fill:url(#linear-gradient-2);}.cls-3{fill:url(#linear-gradient-3);}.cls-4{fill:url(#linear-gradient-4);}</style><linearGradient id="linear-gradient" x1="139.49" y1="138.49" x2="6.77" y2="215.11" gradientUnits="userSpaceOnUse"><stop offset="0" stop-color="#f2f2f2"/><stop offset="0.04" stop-color="#f4f1d9"/><stop offset="0.13" stop-color="#f8ef99"/><stop offset="0.24" stop-color="#ffec3e"/><stop offset="0.27" stop-color="#fbe734"/><stop offset="0.34" stop-color="#f0db1d"/><stop offset="0.43" stop-color="#e9d30d"/><stop offset="0.52" stop-color="#e4ce03"/><stop offset="0.64" stop-color="#e3cc00"/><stop offset="0.96" stop-color="#c7b300"/></linearGradient><linearGradient id="linear-gradient-2" x1="414.66" y1="213.72" x2="283.21" y2="137.82" gradientUnits="userSpaceOnUse"><stop offset="0" stop-color="#c7b300"/><stop offset="0.32" stop-color="#e3cc00"/><stop offset="0.47" stop-color="#e6cf03"/><stop offset="0.58" stop-color="#eed80c"/><stop offset="0.68" stop-color="#fde61c"/><stop offset="0.7" stop-color="#ffe91f"/><stop offset="0.73" stop-color="#feea31"/><stop offset="0.81" stop-color="#fbec61"/><stop offset="0.91" stop-color="#f6efad"/><stop offset="1" stop-color="#f2f2f2"/></linearGradient><linearGradient id="linear-gradient-3" x1="43" y1="130.59" x2="379.1" y2="130.59" gradientUnits="userSpaceOnUse"><stop offset="0" stop-color="#ffec3e"/><stop offset="0.09" stop-color="#f4df25"/><stop offset="0.2" stop-color="#ead410"/><stop offset="0.3" stop-color="#e5ce04"/><stop offset="0.41" stop-color="#e3cc00"/><stop offset="0.42" stop-color="#e6d11b"/><stop offset="0.47" stop-color="#eddf5f"/><stop offset="0.51" stop-color="#f4ea98"/><stop offset="0.55" stop-color="#f9f3c5"/><stop offset="0.58" stop-color="#fcfae5"/><stop offset="0.61" stop-color="#fefef8"/><stop offset="0.63" stop-color="#fff"/><stop offset="0.79" stop-color="#fce93b"/></linearGradient><linearGradient id="linear-gradient-4" x1="43" y1="131.16" x2="379.1" y2="131.16" gradientUnits="userSpaceOnUse"><stop offset="0.37" stop-color="#ffec3e"/><stop offset="0.42" stop-color="#ffec3e"/><stop offset="0.62" stop-color="#e3cc00"/><stop offset="0.72" stop-color="#e5ce03"/><stop offset="0.82" stop-color="#e9d30e"/><stop offset="0.9" stop-color="#f1dc20"/><stop offset="0.98" stop-color="#fce938"/><stop offset="1" stop-color="#ffec3e"/></linearGradient></defs><g id="Layer_2" data-name="Layer 2"><g id="Layer_3" data-name="Layer 3"><path class="cls-1" d="M59.54,0A211,211,0,0,0,1.67,120.66c0,.37-.1.75-.14,1.12A210.72,210.72,0,0,0,22.66,242.29a4,4,0,0,0,.21.41,212.74,212.74,0,0,0,95.94,92.37A211.44,211.44,0,0,1,67.41,213.2a0,0,0,0,1,0,0q-.68-8.32-.67-16.79v0a202.51,202.51,0,0,1,7.07-53.86C14.13,66.12,59.54,0,59.54,0Z"/><path class="cls-2" d="M420.57,121.78c0-.37-.09-.75-.14-1.12A210.81,210.81,0,0,0,362.78,0c.06.31.32.62.38.93,5.15,8.22,40.48,70.43-15.07,141.54l.43,0a215.78,215.78,0,0,1,5.33,28.27,213,213,0,0,1,1.52,25.59v0q0,8.46-.67,16.79a0,0,0,0,1,0,0,211.37,211.37,0,0,1-50.32,120.61,211.77,211.77,0,0,0,117.72-188.3A212,212,0,0,0,420.57,121.78Z"/><path class="cls-3" d="M211.27,178.76c-13.86-41.17-48-74.3-91.67-85.47l-.55-.15-.31-.08a79.9,79.9,0,0,1-20.28-8.31A81,81,0,0,1,58.75,5.12c.21-1.72.47-3.44.79-5.12,0,0-45.41,66.12,14.26,142.49A131.09,131.09,0,0,1,205.24,233,129,129,0,0,1,211,260.41c.07.26.16.52.24.77l.14-82.64C211.32,178.62,211.29,178.69,211.27,178.76Z"/><path class="cls-4" d="M363.16.93c.24,1.38.45,2.78.62,4.19a80.92,80.92,0,0,1-39.71,79.63,79.68,79.68,0,0,1-20.27,8.31l-.31.08-.55.15a131,131,0,0,0-91.6,85.25l-.14,82.64c0,.07,0,.14.07.2.11-.32.22-.64.31-1A129,129,0,0,1,217.3,233a131.07,131.07,0,0,1,131-90.49C403.86,71.36,368.31,9.15,363.16.93Z"/></g></g></svg>