<svg xmlns="http://www.w3.org/2000/svg" viewBox="0 0 10.39 43.68"><defs><style>.cls-1{fill:#ffe500;stroke:#000;stroke-miterlimit:10;stroke-width:0.25px;}</style></defs><g id="Layer_2" data-name="Layer 2"><g id="Layer_1-2" data-name="Layer 1"><path class="cls-1" d="M10,8.47l-8-8a1,1,0,0,0-1.79.74,1.07,1.07,0,0,0,.3.74l8,8,.18.19c.54,1,1.08,1.94,1.62,2.94V9.22A1.06,1.06,0,0,0,10,8.47Z"/><path class="cls-1" d="M1.92,21.09a1,1,0,0,0-1.79.75V33a1.07,1.07,0,0,0,.3.74l9.8,9.8h0V29.87a1.05,1.05,0,0,0-.31-.74Z"/><path class="cls-1" d="M1.92,9.85.13,5.61v5h0v2.48a1.07,1.07,0,0,0,.3.74l8,8a1.06,1.06,0,0,0,1.8-.74V18.64a1.06,1.06,0,0,0-.31-.75Z"/></g></g></svg>