<svg xmlns="http://www.w3.org/2000/svg" xmlns:xlink="http://www.w3.org/1999/xlink" viewBox="0 0 2404.38 1314.49"><defs><style>.cls-1,.cls-10,.cls-11,.cls-12,.cls-13,.cls-14,.cls-15,.cls-16,.cls-17,.cls-18,.cls-2,.cls-3,.cls-4,.cls-5,.cls-6,.cls-7,.cls-8,.cls-9{fill:none;stroke-miterlimit:10;}.cls-1{stroke:url(#linear-gradient);}.cls-2{stroke:url(#linear-gradient-2);}.cls-3{stroke:url(#linear-gradient-3);}.cls-4{stroke:url(#linear-gradient-4);}.cls-5{stroke:url(#linear-gradient-5);}.cls-6{stroke:url(#linear-gradient-6);}.cls-7{stroke:url(#linear-gradient-7);}.cls-8{stroke:url(#linear-gradient-8);}.cls-9{stroke:url(#linear-gradient-9);}.cls-10{stroke:url(#linear-gradient-10);}.cls-11{stroke:url(#linear-gradient-11);}.cls-12{stroke:url(#linear-gradient-12);}.cls-13{stroke:url(#linear-gradient-13);}.cls-14{stroke:url(#linear-gradient-14);}.cls-15{stroke:url(#linear-gradient-15);}.cls-16{stroke:url(#linear-gradient-16);}.cls-17{stroke:url(#linear-gradient-17);}.cls-18{stroke:url(#linear-gradient-18);}</style><linearGradient id="linear-gradient" y1="657.25" x2="2404.38" y2="657.25" gradientUnits="userSpaceOnUse"><stop offset="0" stop-color="#004537"/><stop offset="0.21" stop-color="#004e37"/><stop offset="0.55" stop-color="#006837"/><stop offset="0.55" stop-color="#006837"/><stop offset="0.87" stop-color="#1a1a1a"/></linearGradient><linearGradient id="linear-gradient-2" x1="67.47" y1="656.44" x2="2334.38" y2="656.44" xlink:href="#linear-gradient"/><linearGradient id="linear-gradient-3" x1="134.94" y1="655.64" x2="2264.38" y2="655.64" xlink:href="#linear-gradient"/><linearGradient id="linear-gradient-4" x1="202.41" y1="654.83" x2="2194.38" y2="654.83" xlink:href="#linear-gradient"/><linearGradient id="linear-gradient-5" x1="269.88" y1="653.96" x2="2124.38" y2="653.96" xlink:href="#linear-gradient"/><linearGradient id="linear-gradient-6" x1="337.35" y1="653.13" x2="2054.38" y2="653.13" xlink:href="#linear-gradient"/><linearGradient id="linear-gradient-7" x1="404.82" y1="652.3" x2="1984.38" y2="652.3" xlink:href="#linear-gradient"/><linearGradient id="linear-gradient-8" x1="472.29" y1="651.45" x2="1914.39" y2="651.45" xlink:href="#linear-gradient"/><linearGradient id="linear-gradient-9" x1="539.76" y1="650.6" x2="1844.39" y2="650.6" xlink:href="#linear-gradient"/><linearGradient id="linear-gradient-10" x1="607.24" y1="649.74" x2="1774.39" y2="649.74" xlink:href="#linear-gradient"/><linearGradient id="linear-gradient-11" x1="674.71" y1="648.86" x2="1704.4" y2="648.86" xlink:href="#linear-gradient"/><linearGradient id="linear-gradient-12" x1="742.18" y1="647.97" x2="1634.41" y2="647.97" xlink:href="#linear-gradient"/><linearGradient id="linear-gradient-13" x1="809.65" y1="647.07" x2="1564.43" y2="647.07" xlink:href="#linear-gradient"/><linearGradient id="linear-gradient-14" x1="877.1" y1="646.14" x2="1494.44" y2="646.14" xlink:href="#linear-gradient"/><linearGradient id="linear-gradient-15" x1="944.5" y1="645.18" x2="1424.47" y2="645.18" xlink:href="#linear-gradient"/><linearGradient id="linear-gradient-16" x1="1011.11" y1="643.8" x2="1354.59" y2="643.8" xlink:href="#linear-gradient"/><linearGradient id="linear-gradient-17" x1="1075.35" y1="642.98" x2="1284.68" y2="642.98" xlink:href="#linear-gradient"/><linearGradient id="linear-gradient-18" x1="1137.28" y1="635.5" x2="1217.53" y2="635.5" xlink:href="#linear-gradient"/></defs><g id="Layer_2" data-name="Layer 2"><g id="Layer_2-2" data-name="Layer 2"><path class="cls-1" d="M2360,672c183.51,66.48-266.23,191.76-288.9,225.12-116.26,171.11-122.62,225.38-226.44,263.19-90.25,32.87-489.8-128.6-669.6,105.91C1072,1400.66,750.25,1211,673.51,1189.06c-63-18-61-175.78-174.33-232.52C404.06,908.91-3.18,1060.82,55,818.21c7.23-30.13-50.41-82.27-54.16-154-9.9-189.63,196.79,19,258.75-370.86C284.76,135,721,231,801.29,213.46c45.7-10,191.38-53.87,384.49-143.43,414.91-192.41,306.47,56,542.8,242.84,10.86,8.59,408.57-20.56,440.91,11.78C2232,387.17,2149.88,595.86,2360,672Z"/><path class="cls-2" d="M312.32,311.66c24.17-149.15,435.32-57.9,511-74.44,43.15-9.41,180.37-50.68,362.23-134.95,390.77-181.07,288,53.87,511.46,228.61,10.44,8.17,384.68-19.12,415.33,11.15,60.15,59.4-17.42,256.28,180.29,328,172.7,62.65-251.25,180.5-273,212.06-110.48,160.59-116.06,212.22-214,247.88-12.81,4.67-32.18,5.21-56.43,3.51-137.46-9.37-429.59-90-574.31,97.44-97.42,126.52-400.62-52.15-473.16-73-59.56-17.13-57.93-165.77-164.66-219.21-90-45.08-472.94,97.73-418-131.06C126,779.23,71.8,730.05,68.3,662.47c-5.52-106,59.91-80.26,127.27-118.56C241.91,517.51,288.37,460.84,312.32,311.66Z"/><path class="cls-3" d="M365.06,329.92C388.21,190,774.28,276.48,845.33,261c40.59-8.81,169.36-47.49,340-126.49,366.63-169.73,269.59,51.71,480.12,214.4,10,7.75,360.8-17.7,389.76,10.51,57.77,56.28-15.24,241.35,170.09,308.73,161.89,58.82-236.27,169.24-257,199-104.67,150.08-109.49,199.06-201.49,232.57-12.06,4.4-30.27,4.89-53,3.37-129.38-8.64-402.19-83.06-538.83,92.62-91.76,118.57-376.45-49.14-444.81-68.9-56.14-16.23-54.83-155.74-155-205.88-84.9-42.54-443.52,91.18-391.76-123.79,6.46-26.77-44.32-73-47.58-136.45-5.16-99.48,55.26-75.73,118.8-112C298.49,523.57,342.33,469.83,365.06,329.92Z"/><path class="cls-4" d="M417.79,348.19c21.84-130.72,383.13-49,449.57-63.44,38-8.21,158.34-44.3,317.68-118,342.49-158.38,251.22,49.51,448.78,200.18,9.61,7.33,336.94-16.27,364.19,9.89,55.41,53.17-13,226.4,159.89,289.43,151.08,55-221.29,158-241.1,185.95-98.83,139.57-102.92,185.89-189,217.27-11.32,4.13-28.36,4.58-49.65,3.22-121.31-7.77-374.79-76.08-503.36,87.79-86.09,110.63-352.27-46.12-416.44-64.77C705.62,1080.35,706.6,950,613.05,903.12c-79.79-40-414.11,84.63-365.55-116.52,6.07-25.08-41.28-68.32-44.3-127.7-4.8-92.93,50.62-71.19,110.34-105.35C355.08,529.64,396,478.76,417.79,348.19Z"/><path class="cls-5" d="M470.52,366.46c20.73-121.51,357-44.53,418.86-57.94,35.47-7.61,147.33-41.11,295.41-109.56,318.36-147,232.9,47.26,417.44,186,9.2,6.92,313.08-14.85,338.62,9.26,53.05,50.07-10.86,211.47,149.7,270.13,140.26,51.17-206.32,146.72-225.18,172.9-93,129.07-96.35,172.73-176.53,202-10.57,3.86-26.45,4.28-46.26,3.07-113.25-6.9-347.81-69.42-467.88,83-80.72,102.46-328.1-43.11-388.08-60.66C737.32,1050.12,738,928.86,651,885.31c-74.69-37.43-384.69,78.08-339.35-109.24,5.69-23.4-38.24-63.68-41-119-4.43-86.39,46-66.55,101.87-98.74C411.71,535.78,449.84,487.73,470.52,366.46Z"/><path class="cls-6" d="M523.26,384.72c19.61-112.28,330.93-40.07,388.15-52.43,32.9-7,136.3-37.93,273.14-101.09,294.21-135.7,214.64,44.93,386.09,171.73,8.8,6.51,289.23-13.44,313.06,8.63,50.7,47-8.69,196.54,139.49,250.84,129.45,47.34-191.33,135.45-209.25,159.85-87.08,118.57-89.78,159.56-164,186.64-9.83,3.59-24.54,4-42.87,2.93-105.18-6-320.52-62.53-432.41,78.16-75.12,94.45-303.93-40.1-359.72-56.54C769,1019.9,769.34,907.76,689,867.51c-69.58-34.89-355.27,71.53-313.14-102,5.31-21.71-35.2-59-37.72-110.2-4.08-79.84,41.4-62,93.4-92.13C468.3,541.87,503.7,496.7,523.26,384.72Z"/><path class="cls-7" d="M576,403c18.5-103.07,304.84-35.62,357.44-46.94,30.35-6.41,125.29-34.73,250.87-92.62,270.07-124.36,196.46,42.54,354.75,157.51,8.39,6.1,265.4-12,287.49,8,48.37,43.89-6.5,181.61,129.29,231.54,118.64,43.51-176.33,124.18-193.31,146.8-81.15,108.09-83.22,146.4-151.58,171.34-9.09,3.32-22.63,3.68-39.48,2.78-97.12-5.17-293.22-55.63-396.93,73.33-69.53,86.45-279.76-37.09-331.36-52.42-42.45-12.64-42.46-115.66-116.24-152.61-64.48-32.34-325.86,65-286.94-94.7,4.93-20-32.15-54.38-34.43-101.45-3.71-73.3,36.77-57.43,84.93-85.53C524.9,548,557.56,505.66,576,403Z"/><path class="cls-8" d="M628.72,421.26c17.39-93.85,278.72-31.28,326.74-41.44,27.77-5.88,114.27-31.55,228.59-84.16,245.93-113,178.36,40.06,323.41,143.29,8,5.69,241.58-10.64,261.92,7.38,46,40.81-4.32,166.67,119.09,212.24,107.82,39.68-161.34,112.9-177.38,133.74-75.17,97.63-76.65,133.23-139.1,156-8.34,3-20.72,3.38-36.09,2.64-89.06-4.3-265.91-48.74-361.46,68.51-63.92,78.45-255.58-34.08-303-48.31-39-11.74-39.37-105.63-106.56-139.28-59.37-29.8-296.44,58.42-260.73-87.44,4.54-18.35-29.11-49.72-31.15-92.7-3.35-66.75,32.14-52.87,76.47-78.92C581.49,554,611.42,514.63,628.72,421.26Z"/><path class="cls-9" d="M681.46,439.53c16.28-84.64,252.62-26.84,296-35.95,25.21-5.28,103.26-28.35,206.32-75.69,221.8-101.66,160.37,37.48,292.07,129.08,7.58,5.27,217.78-9.28,236.35,6.74,43.76,37.75-2.13,151.74,108.89,192.94,97,35.86-146.33,101.62-161.45,120.69-69.13,87.19-70.08,120.07-126.62,140.72-7.6,2.78-18.81,3.08-32.7,2.49-81-3.43-238.61-41.84-326,63.7C1116,1054.69,943,953.18,899.72,940.06c-35.6-10.85-36.27-95.62-96.87-126-54.27-27.24-267,51.88-234.53-80.16,4.16-16.67-26.06-45.08-27.86-83.95-3-60.21,27.5-48.32,68-72.32C638.09,560.11,665.28,523.59,681.46,439.53Z"/><path class="cls-10" d="M734.19,457.79c15.18-75.43,226.52-22.39,265.31-30.44,22.65-4.7,92.25-25.17,184-67.22C1381.21,269.8,1326,394.88,1444.28,475c7.18,4.86,194-7.92,210.78,6.11,41.49,34.71,0,136.8,98.7,173.65,86.19,32-131.32,90.32-145.53,107.63-63,76.78-63.51,106.91-114.14,125.42-6.85,2.51-16.9,2.78-29.31,2.34-73-2.56-211.29-34.94-290.51,58.87C1121.56,1011.44,967,921,928,908.93c-32.18-9.95-33.18-85.59-87.19-112.64-49.16-24.7-237.86,45.26-208.32-72.9,3.74-15-23-40.43-24.58-75.19-2.51-53.68,22.87-43.78,59.54-65.72C694.68,566.19,719.15,532.56,734.19,457.79Z"/><path class="cls-11" d="M786.92,476.06c14.07-66.22,200.43-17.95,234.61-24.94,20.08-4.11,81.23-22,161.78-58.76,173.51-79,124.74,31.87,229.38,100.63,6.79,4.46,170.26-6.58,185.21,5.48,39.25,31.68,2.24,121.87,88.5,154.35,75.38,28.2-116.3,79-129.6,94.58-56.78,66.42-56.94,93.75-101.66,110.11-6.11,2.24-15,2.48-25.92,2.2-64.9-1.69-184-28.06-255,54-47.11,54.44-183.07-25-217.92-36-28.75-9-30.08-75.57-77.5-99.33-44.06-22.15-208.47,38.71-182.12-65.62,3.36-13.31-19.89-35.78-21.28-66.45-2.15-47.13,18.23-39.23,51.06-59.1C751.28,572.27,773,541.52,786.92,476.06Z"/><path class="cls-12" d="M839.65,494.33c13-57,174.33-13.51,203.9-19.45,17.52-3.51,70.22-18.78,139.51-50.29,149.37-67.64,107.16,28.78,198,86.41,6.4,4.06,146.54-5.28,159.64,4.86,37,28.66,4.43,106.93,78.3,135,64.57,24.37-101.25,67.71-113.66,81.53C1455,788.55,1455,813,1416.19,827.23c-5.36,2-13.08,2.19-22.53,2.06-56.86-.81-156.65-21.17-219.56,49.23-41.49,46.43-158.89-22-189.55-31.84-25.33-8.15-27-65.55-67.82-86-39-19.6-179.07,32.15-155.91-58.35,3-11.62-16.84-31.13-18-57.69-1.77-40.59,13.59-34.69,42.6-52.5C807.87,578.34,826.88,550.47,839.65,494.33Z"/><path class="cls-13" d="M892.39,512.59c11.87-47.83,148.23-9.06,173.19-13.94,15-2.93,59.2-15.6,117.23-41.83,125.24-56.29,89.79,25.44,166.7,72.19,6,3.66,122.86-4,134.07,4.23,34.91,25.67,6.61,92,68.1,115.75,53.76,20.54-86.18,56.39-97.73,68.48-43.89,45.9-43.81,67.41-76.71,79.48-4.62,1.71-11.18,1.9-19.14,1.91-48.83.08-129.3-14.28-184.08,44.42-35.86,38.42-134.72-19-161.19-27.73-21.92-7.25-23.9-55.52-58.14-72.68C920.84,725.81,805,768.46,825,691.79c2.59-9.95-13.79-26.48-14.71-48.95-1.4-34,9-30.15,34.13-45.89C864.46,584.42,880.76,559.42,892.39,512.59Z"/><path class="cls-14" d="M945.12,530.86c10.79-38.66,122.14-4.61,142.48-8.44,12.4-2.34,48.19-12.41,95-33.36,101.1-45,72.67,21.74,135.36,58,5.63,3.26,99.24-2.8,108.5,3.6,32.84,22.68,8.75,77.19,57.9,96.46,42.9,16.81-71.08,45-81.8,55.42-37.09,35.85-37.24,54.25-64.23,64.18-3.87,1.43-9.27,1.61-15.75,1.76-40.81,1-101.93-7.41-148.61,39.59-30.21,30.43-110.54-16-132.83-23.6-18.49-6.36-20.81-45.51-48.45-59.37-28.74-14.5-120.27,19-103.5-43.81,2.2-8.26-10.74-21.83-11.43-40.19-1-27.5,4.3-25.63,25.67-39.29C921.05,590.48,934.66,568.36,945.12,530.86Z"/><path class="cls-15" d="M997.85,549.13c9.73-29.52,96.05-.16,111.78-3,9.83-1.74,37.17-9.22,72.69-24.89,77-33.61,55.84,17.62,104,43.74,5.27,2.86,75.67-1.66,82.93,3,30.86,19.68,10.93,62.26,47.71,77.16,32.08,13-55.93,33.72-65.88,42.37-29.94,26-30.67,41.09-51.75,48.87-3.13,1.17-7.37,1.33-12.36,1.62-32.82,1.9-74.51-.54-113.13,34.77-24.53,22.43-86.38-13-104.47-19.49-15.07-5.46-17.72-35.48-38.77-46-23.64-12-90.86,12.48-77.3-36.54,1.82-6.58-7.68-17.19-8.13-31.45-.67-20.95-.36-21.11,17.19-32.68C977.63,596.54,988.58,577.28,997.85,549.13Z"/><path class="cls-16" d="M1050.59,567.39c8.72-20.42,70,4.31,81.06,2.56,7.28-1.15,26.13-6.1,50.42-16.43,52.75-22.42,42.86,7.28,72.67,29.53,5.27,1.54,52.85-1.57,57.36,2.34,31.71,10.69,13.11,47.33,37.51,57.86,21.26,9.17-39.47,24.38-49.95,29.31-18.53,20.76-24.11,27.89-39.27,33.56-2.38.9-5.47,1.07-9,1.48-24.88,2.89-47,6.35-77.66,29.95-18.78,14.45-62.2-10-76.1-15.37-11.65-4.56-14.64-25.43-29.09-32.73-18.56-9.37-61.43,5.93-51.09-29.27,1.44-4.89-4.64-12.53-4.85-22.69-.3-14.4-5-16.62,8.73-26.07C1034.21,602.58,1042.57,586.17,1050.59,567.39Z"/><path class="cls-17" d="M1103.32,585.66c7.93-11.43,43.87,8.79,50.35,8.05,4.73-.53,15.12-2.91,28.15-8,28.62-11.08,25.29,4,41.33,15.31,4.9,1.07,29.14-.3,31.79,1.71,29.65,7.23,15.28,32.4,27.31,38.56,10.44,5.35-24.35,13.23-34,16.26-12,10.73-17.54,14.73-26.79,18.26a50,50,0,0,1-5.58,1.32c-17,4.08-19.22,13.36-42.18,25.13-12.86,6.59-38-7-47.75-11.25-8.22-3.66-11.54-15.42-19.4-19.4-13.45-6.83-32-.61-24.89-22,1.06-3.22-1.59-7.88-1.56-13.94.05-7.86-9.71-12.16.26-19.47C1090.76,608.6,1096.81,595,1103.32,585.66Z"/><path class="cls-18" d="M1175.7,617.48c19.1,1.55,20.73,2.48,22.08,2.67,27.6,3.78,17.54,17.33,17.11,19.27-.56,2.5-28.58,2.67-34.59,7.33-8.5,6.6,8.83,21.71-6.71,20.31-12.67-1.15-26.34-11.79-29.1-13.22-10-5.18.69-8.12,3-19.92.26-1.31-14.44-7.74-8.2-12.86,7.93-6.52,12.43-16.43,16.72-17.13C1164.1,602.61,1173.84,617.33,1175.7,617.48Z"/></g></g></svg>